<?xml version="1.0" encoding="utf-8"?>
<!-- Generator: Adobe Illustrator 15.0.0, SVG Export Plug-In . SVG Version: 6.00 Build 0)  -->
<!DOCTYPE svg PUBLIC "-//W3C//DTD SVG 1.1//EN" "http://www.w3.org/Graphics/SVG/1.1/DTD/svg11.dtd">
<svg version="1.1" id="Layer_1" xmlns="http://www.w3.org/2000/svg" xmlns:xlink="http://www.w3.org/1999/xlink" x="0px" y="0px"
	 width="64px" height="64px" viewBox="0 0 64 64" enable-background="new 0 0 64 64" xml:space="preserve">
<g>
	<g>
		<g>
			<path d="M32,26.902c-2.802,0-5.082,2.281-5.082,5.083c0,2.803,2.28,5.083,5.082,5.083c2.803,0,5.083-2.28,5.083-5.083
				C37.083,29.183,34.803,26.902,32,26.902z"/>
		</g>
	</g>
	<g>
		<path d="M61.046,32.614c0.039-1.76-0.718-3.453-2.249-5.032c0-0.001,0-0.004,0-0.004c0-1.501-1.221-2.722-2.723-2.722
			c-0.254,0-0.506,0.035-0.75,0.107c-0.939-0.542-1.967-1.046-3.061-1.503c-0.729-0.304-1.556-0.608-2.511-0.924
			c2.043-7.399,1.296-12.851-2.08-15.014C44.134,5.25,38.28,7.253,32,12.953c-6.278-5.697-12.126-7.708-15.672-5.431
			c-2.148,1.376-3.254,4.099-3.212,7.891c-0.672,0.509-1.076,1.302-1.076,2.158c0,1.081,0.638,2.039,1.599,2.474
			c0.117,0.572,0.263,1.191,0.443,1.874c-7,2.12-11.042,5.538-11.127,9.437c-0.077,3.504,3.042,6.756,8.781,9.153
			c0.733,0.308,1.565,0.613,2.527,0.93c-0.271,0.967-0.48,1.827-0.637,2.617c-1.21,6.101-0.25,10.502,2.703,12.395
			c3.557,2.272,9.398,0.262,15.672-5.434c4.537,4.118,8.868,6.379,12.244,6.381c1.292,0,2.445-0.318,3.429-0.948
			c2.952-1.892,3.911-6.293,2.701-12.394c-0.119-0.599-0.273-1.259-0.467-1.998C56.914,39.936,60.961,36.516,61.046,32.614z
			 M17.806,54.139c-1.88-1.204-2.438-4.775-1.491-9.551c0.139-0.699,0.327-1.474,0.573-2.354c2.608,0.696,5.46,1.22,8.497,1.558
			c1.504,1.934,3.059,3.718,4.631,5.316C24.953,53.666,20.188,55.663,17.806,54.139z M17.806,9.83
			c2.375-1.514,7.147,0.474,12.21,5.033c-1.505,1.529-2.993,3.225-4.429,5.053c-3.154,0.227-6.117,0.659-8.826,1.289
			c-0.125-0.49-0.24-0.979-0.345-1.48c0.663-0.508,1.067-1.303,1.067-2.154c0-1.084-0.648-2.05-1.604-2.483
			C15.88,13.146,16.247,10.829,17.806,9.83z M17.689,39.612c0.521-1.508,1.142-3.052,1.854-4.609
			c0.685,1.218,1.406,2.419,2.153,3.584c0.452,0.707,0.925,1.415,1.429,2.138C21.196,40.429,19.376,40.057,17.689,39.612z
			 M21.697,25.383c-0.751,1.173-1.47,2.368-2.144,3.566c-0.772-1.707-1.44-3.407-1.997-5.081c1.824-0.42,3.771-0.749,5.817-0.982
			C22.793,23.711,22.233,24.547,21.697,25.383z M21.042,31.976c0.925-1.768,1.921-3.485,2.964-5.114
			c0.902-1.408,1.91-2.847,2.998-4.285c1.718-0.096,3.448-0.125,5.202-0.085c1.654,0.036,3.316,0.13,4.94,0.283
			c1.031,1.373,1.989,2.745,2.849,4.086c1.042,1.628,2.039,3.348,2.963,5.115c-0.935,1.794-1.931,3.519-2.963,5.131
			c-0.907,1.415-1.913,2.854-2.997,4.284c-1.717,0.094-3.445,0.122-5.204,0.084c-1.65-0.034-3.31-0.129-4.94-0.282
			c-1.033-1.374-1.989-2.748-2.848-4.086C22.975,35.498,21.979,33.773,21.042,31.976z M40.626,41.084
			c0.581-0.829,1.144-1.664,1.677-2.497c0.748-1.168,1.47-2.369,2.153-3.586c0.782,1.718,1.458,3.423,2.013,5.094
			C44.638,40.519,42.681,40.85,40.626,41.084z M42.303,25.383c-0.457-0.714-0.93-1.422-1.43-2.139
			c1.916,0.294,3.73,0.665,5.417,1.109c-0.521,1.505-1.138,3.045-1.843,4.597C43.775,27.755,43.057,26.561,42.303,25.383z
			 M47.091,21.73c-2.609-0.695-5.456-1.215-8.476-1.552c-1.504-1.934-3.058-3.718-4.631-5.314c5.063-4.559,9.839-6.547,12.211-5.033
			C48.431,11.264,48.756,15.687,47.091,21.73z M32.266,19.75c-0.529-0.011-1.056-0.017-1.578-0.017
			c-0.474,0-0.945,0.004-1.412,0.014c0.895-1.048,1.806-2.043,2.726-2.974c0.957,0.971,1.902,2.003,2.822,3.086
			C33.922,19.804,33.075,19.769,32.266,19.75z M14.855,24.583c0.775,2.346,1.817,4.833,3.1,7.408
			c-1.17,2.354-2.141,4.646-2.889,6.826c-0.866-0.286-1.613-0.563-2.274-0.838c-4.493-1.877-7.146-4.33-7.096-6.564
			C5.751,28.84,9.16,26.309,14.855,24.583z M31.736,44.219c1.007,0.021,2.007,0.023,2.99,0.003
			c-0.895,1.048-1.807,2.044-2.726,2.977c-0.954-0.967-1.899-1.999-2.823-3.088C30.091,44.166,30.927,44.201,31.736,44.219z
			 M38.413,44.055c3.155-0.226,6.125-0.66,8.845-1.294c0.177,0.677,0.318,1.278,0.428,1.828c0.947,4.774,0.391,8.345-1.489,9.55
			c-2.38,1.524-7.149-0.476-12.212-5.03C35.488,47.582,36.974,45.887,38.413,44.055z M49.123,39.392
			c-0.785-2.383-1.818-4.867-3.079-7.403c1.166-2.339,2.14-4.633,2.896-6.833c0.871,0.289,1.604,0.559,2.267,0.835
			c0.779,0.327,1.517,0.678,2.203,1.047c-0.038,0.178-0.057,0.358-0.057,0.539c0,1.5,1.222,2.721,2.721,2.721
			c0.422,0,0.834-0.099,1.206-0.286c0.699,0.865,1.043,1.718,1.024,2.543C58.251,35.132,54.834,37.664,49.123,39.392z"/>
	</g>
</g>
</svg>
