<?xml version="1.0" encoding="utf-8"?>
<!-- Generator: Adobe Illustrator 16.0.4, SVG Export Plug-In . SVG Version: 6.00 Build 0)  -->
<!DOCTYPE svg PUBLIC "-//W3C//DTD SVG 1.1//EN" "http://www.w3.org/Graphics/SVG/1.1/DTD/svg11.dtd">
<svg version="1.1" id="Layer_1" xmlns="http://www.w3.org/2000/svg" xmlns:xlink="http://www.w3.org/1999/xlink" x="0px" y="0px"
	 width="50px" height="50px" viewBox="0 0 50 50" enable-background="new 0 0 50 50" xml:space="preserve">
<path d="M22.268,22.801c0.098,0.059,0.196,0.121,0.295,0.179c0.098,0.058,0.197,0.106,0.295,0.161
	c-0.165,0.058-0.328,0.11-0.489,0.16C22.332,23.14,22.3,22.971,22.268,22.801z M20.097,19.333c0.121,0.111,0.236,0.224,0.367,0.337
	c-0.002-0.112-0.007-0.226-0.007-0.337c0-0.112,0.005-0.226,0.007-0.337C20.333,19.108,20.218,19.221,20.097,19.333z M26.968,23.301
	c0.036-0.161,0.068-0.33,0.101-0.5c-0.099,0.059-0.194,0.12-0.295,0.178c-0.098,0.058-0.195,0.106-0.295,0.161
	C26.644,23.197,26.806,23.25,26.968,23.301z M22.389,15.371c-0.037,0.16-0.073,0.318-0.105,0.483
	c0.093-0.056,0.185-0.113,0.279-0.168c0.098-0.057,0.197-0.105,0.295-0.161C22.7,15.471,22.543,15.419,22.389,15.371z
	 M26.545,13.923c-0.55-1.501-1.276-2.341-1.877-2.341c-0.573,0-1.245,0.774-1.753,2.021c-0.041,0.101-0.07,0.22-0.108,0.323
	c0.606,0.188,1.229,0.419,1.861,0.696C25.306,14.346,25.935,14.11,26.545,13.923z M29.23,19.333
	c-0.118-0.109-0.233-0.218-0.358-0.325c0.002,0.108,0.007,0.217,0.007,0.325c0,0.107-0.005,0.217-0.007,0.325
	C28.997,19.551,29.114,19.441,29.23,19.333z M24.668,16.276c-0.452,0.217-0.906,0.449-1.356,0.708
	c-0.465,0.27-0.89,0.544-1.295,0.821c-0.038,0.498-0.06,1.007-0.06,1.527c0,0.533,0.022,1.04,0.059,1.525
	c0.406,0.276,0.831,0.553,1.297,0.821c0.45,0.26,0.904,0.492,1.356,0.708c0.452-0.216,0.906-0.449,1.355-0.708
	c0.451-0.261,0.884-0.535,1.297-0.818c0.036-0.486,0.06-0.994,0.06-1.528s-0.022-1.042-0.06-1.529
	c-0.413-0.283-0.845-0.558-1.296-0.818C25.574,16.726,25.121,16.493,24.668,16.276z M26.479,15.525
	c0.1,0.056,0.197,0.104,0.295,0.161c0.101,0.059,0.196,0.119,0.295,0.179c-0.032-0.17-0.064-0.34-0.101-0.499
	C26.806,15.416,26.644,15.469,26.479,15.525z M29.692,14.882c-0.395,0-0.829,0.046-1.286,0.127c0.144,0.63,0.256,1.29,0.334,1.965
	c0.555,0.409,1.07,0.833,1.539,1.268c0.07-0.085,0.159-0.171,0.226-0.256c0.826-1.062,1.162-2.031,0.875-2.527
	C31.169,15.092,30.554,14.882,29.692,14.882z M20.595,16.98c0.078-0.678,0.19-1.34,0.335-1.972c-0.456-0.08-0.889-0.126-1.284-0.126
	c-0.862,0-1.478,0.21-1.689,0.577c-0.3,0.52,0.077,1.57,1.101,2.795C19.531,17.814,20.046,17.388,20.595,16.98z M30.28,20.424
	c-0.469,0.434-0.983,0.858-1.538,1.267c-0.078,0.677-0.19,1.336-0.334,1.967c0.457,0.08,0.891,0.127,1.285,0.127
	c0.861,0,1.477-0.209,1.688-0.576c0.287-0.497-0.048-1.465-0.875-2.528C30.439,20.595,30.351,20.51,30.28,20.424z M39.499,26.748
	c0,0,0.035,1.03-1.56,1.062c0,0-0.397,0.053-0.282,0.931l0.018,1.279c0,0-0.051,0.381-0.748,0.613c0,0-0.133,0.132,0.066,0.383
	c0,0,0.366,0.41-0.267,1.294c-0.233,0.324-0.612,0.73-0.381,1.562c0,0,0.299,1.607-0.332,1.992c0,0-0.717,0.852-3.604,0.495
	c-1.009-0.124-2.871-0.612-3.982,0.782c0,0-2.656,5.045-2.856,6.24c0,0-4.532-8.068-10.062-9.313c0,0,1.346-3.037-1.393-6.973
	c0,0-3.436-4.532-3.537-7.021c0,0-0.906-4.195,3.377-8.978c2.059-2.298,4.781-4.432,11.506-4.479c2.627-0.021,6.639,0.601,9.76,3.9
	c1.89,1.993,3.279,4.512,2.883,8.627c-0.086,0.894-1.36,1.927-0.465,3.651C37.642,22.798,39.565,26.184,39.499,26.748z
	 M31.336,19.333c0.122-0.143,0.244-0.284,0.354-0.426c1.264-1.626,1.614-3.117,0.989-4.199c-0.349-0.604-1.149-1.326-2.986-1.326
	c-0.526,0-1.099,0.062-1.698,0.176c-0.707-2.037-1.826-3.476-3.327-3.476c-1.501,0-2.62,1.438-3.326,3.476
	c-0.599-0.113-1.169-0.175-1.696-0.175c-1.836,0-2.639,0.721-2.988,1.326c-0.751,1.301-0.062,2.992,1.353,4.624
	c-1.414,1.632-2.104,3.323-1.353,4.625c0.35,0.604,1.152,1.326,2.988,1.326l0,0c0.527,0,1.097-0.063,1.696-0.176
	c0.707,2.036,1.826,3.475,3.326,3.476l0,0c1.5,0,2.62-1.439,3.327-3.476c0.6,0.113,1.171,0.177,1.698,0.177
	c1.835,0,2.638-0.722,2.986-1.325c0.625-1.082,0.274-2.573-0.989-4.199C31.58,19.617,31.458,19.475,31.336,19.333z M22.791,24.743
	c0.55,1.5,1.275,2.339,1.877,2.34v0.75v-0.75c0.602,0,1.328-0.839,1.877-2.34c-0.611-0.188-1.239-0.423-1.877-0.701
	C24.031,24.32,23.402,24.555,22.791,24.743z M19.057,20.411c-1.023,1.225-1.401,2.275-1.101,2.796
	c0.212,0.366,0.828,0.576,1.689,0.576l0,0c0.394,0,0.828-0.047,1.283-0.126c-0.145-0.633-0.257-1.295-0.335-1.973
	C20.046,21.278,19.531,20.851,19.057,20.411z"/>
</svg>
