<?xml version="1.0" encoding="iso-8859-1"?>
<!-- Generator: Adobe Illustrator 16.0.0, SVG Export Plug-In . SVG Version: 6.00 Build 0)  -->
<!DOCTYPE svg PUBLIC "-//W3C//DTD SVG 1.1//EN" "http://www.w3.org/Graphics/SVG/1.1/DTD/svg11.dtd">
<svg version="1.1" id="Capa_1" xmlns="http://www.w3.org/2000/svg" xmlns:xlink="http://www.w3.org/1999/xlink" x="0px" y="0px"
	 width="24.547px" height="23.618px" viewBox="0 0 24.547 23.618" style="enable-background:new 0 0 24.547 23.618;"
	 xml:space="preserve">
<path d="M5.285,23.618c-0.111,0-0.217-0.041-0.298-0.12l-4.866-4.879c-0.161-0.159-0.161-0.422,0-0.585l4.866-4.885
	c0.119-0.117,0.298-0.155,0.454-0.089c0.156,0.06,0.256,0.215,0.256,0.384v3.021h13.335c0.369,0,0.67-0.301,0.67-0.668v-3.4
	c0-0.111,0.043-0.216,0.119-0.295l3.256-3.269c0.118-0.118,0.3-0.156,0.454-0.091c0.157,0.066,0.258,0.22,0.258,0.386v7.391
	c0,2.64-1.395,4.034-4.033,4.034H5.698v2.652c0,0.167-0.1,0.318-0.256,0.38C5.392,23.606,5.335,23.618,5.285,23.618z"/>
<path d="M1.171,14.914c-0.055,0-0.108-0.012-0.159-0.033c-0.156-0.063-0.258-0.213-0.258-0.383v-7.39
	c0-2.641,1.392-4.033,4.033-4.033h14.064V0.416c0-0.165,0.101-0.317,0.256-0.385C19.265-0.03,19.442,0,19.562,0.123l4.864,4.875
	c0.162,0.162,0.162,0.427,0,0.588l-4.864,4.882c-0.119,0.121-0.296,0.158-0.454,0.091c-0.155-0.063-0.256-0.216-0.256-0.386V7.159
	H5.508c-0.367,0-0.664,0.3-0.664,0.669v3.401c0,0.11-0.043,0.213-0.124,0.296L1.462,14.79C1.385,14.87,1.281,14.914,1.171,14.914z"
	/>
<g>
</g>
<g>
</g>
<g>
</g>
<g>
</g>
<g>
</g>
<g>
</g>
<g>
</g>
<g>
</g>
<g>
</g>
<g>
</g>
<g>
</g>
<g>
</g>
<g>
</g>
<g>
</g>
<g>
</g>
</svg>
