<?xml version="1.0" encoding="iso-8859-1"?>
<!-- Generator: Adobe Illustrator 17.1.0, SVG Export Plug-In . SVG Version: 6.00 Build 0)  -->
<!DOCTYPE svg PUBLIC "-//W3C//DTD SVG 1.1//EN" "http://www.w3.org/Graphics/SVG/1.1/DTD/svg11.dtd">
<svg version="1.1" id="Capa_1" xmlns="http://www.w3.org/2000/svg" xmlns:xlink="http://www.w3.org/1999/xlink" x="0px" y="0px"
	 viewBox="0 0 200 200" style="enable-background:new 0 0 200 200;" xml:space="preserve">
<g>
	<path d="M100,1.667C45.692,1.667,1.667,45.692,1.667,100c0,54.308,44.025,98.333,98.333,98.333s98.333-44.025,98.333-98.333
		C198.333,45.692,154.308,1.667,100,1.667z M100,113c-0.447,0-0.889-0.023-1.325-0.067l-5.024,13.349
		c-0.974,2.589-3.862,3.897-6.451,2.923c-2.589-0.974-3.897-3.862-2.923-6.451c0.067-0.178,0.145-0.353,0.23-0.519l6.559-12.808
		C88.567,107.058,87,103.715,87,100c0-7.18,5.82-13,13-13c0.832,0,1.642,0.086,2.43,0.235l22.322-43.589l-17.225,45.768
		C110.835,91.77,113,95.629,113,100C113,107.18,107.18,113,100,113z M178.333,105h-18.667c-2.761,0-5-2.239-5-5s2.239-5,5-5h13.477
		c-1.115-16.462-7.682-31.443-17.912-43.161l-9.505,9.505c-0.977,0.976-2.256,1.464-3.536,1.464s-2.559-0.488-3.536-1.464
		c-1.953-1.953-1.953-5.119,0-7.071l9.505-9.505C136.443,34.538,121.462,27.971,105,26.856v13.477c0,2.761-2.239,5-5,5s-5-2.239-5-5
		V26.856c-16.462,1.115-31.443,7.682-43.161,17.912l9.505,9.505c1.953,1.953,1.953,5.119,0,7.071
		c-0.977,0.976-2.256,1.464-3.536,1.464s-2.559-0.488-3.536-1.464l-9.505-9.505C34.538,63.557,27.971,78.538,26.856,95h13.477
		c2.761,0,5,2.239,5,5s-2.239,5-5,5H21.667c-2.761,0-5-2.239-5-5c0-22.792,9.205-43.47,24.084-58.53
		c0.108-0.132,0.2-0.273,0.323-0.396c0.123-0.123,0.263-0.215,0.395-0.323C56.529,25.872,77.207,16.667,100,16.667
		s43.471,9.206,58.531,24.085c0.132,0.107,0.272,0.2,0.395,0.323c0.123,0.123,0.216,0.264,0.323,0.396
		c14.879,15.06,24.084,35.737,24.084,58.53C183.333,102.761,181.095,105,178.333,105z"/>
</g>
</svg>
