<?xml version="1.0" encoding="iso-8859-1"?>
<!-- Generator: Adobe Illustrator 17.1.0, SVG Export Plug-In . SVG Version: 6.00 Build 0)  -->
<!DOCTYPE svg PUBLIC "-//W3C//DTD SVG 1.1//EN" "http://www.w3.org/Graphics/SVG/1.1/DTD/svg11.dtd">
<svg version="1.1" id="Capa_1" xmlns="http://www.w3.org/2000/svg" xmlns:xlink="http://www.w3.org/1999/xlink" x="0px" y="0px"
	 viewBox="0 0 200 200" style="enable-background:new 0 0 200 200;" xml:space="preserve">
<g>
	<path d="M100,1.667C45.692,1.667,1.667,45.692,1.667,100c0,54.308,44.025,98.333,98.333,98.333s98.333-44.025,98.333-98.333
		C198.333,45.692,154.308,1.667,100,1.667z M109.4,108.653c-5.093,5.061-13.324,5.035-18.385-0.058
		c-5.061-5.093-5.035-13.324,0.058-18.385c3.063-3.043,7.259-4.233,11.219-3.602l33.963-22.97l-23.184,33.818
		C113.679,101.421,112.463,105.61,109.4,108.653z M183.766,75.013c1.703,4.957,2.687,9.449,3.326,13.169
		c0.152,0.933,0.296,1.816,0.432,2.647c0.116,0.859,0.198,1.702,0.285,2.468c0.082,0.772,0.157,1.486,0.227,2.14
		c0.063,0.641,0.077,1.08,0.113,1.55c0.119,1.8,0.182,2.76,0.182,2.76l-19.994,0.506c0,0,0.015-0.962,0.042-2.766
		c0.002-0.431,0.025-1,0.012-1.464c-0.015-0.45-0.031-0.942-0.048-1.473c-0.016-0.536-0.033-1.113-0.051-1.728
		c-0.053-0.656-0.11-1.352-0.17-2.088c-0.258-2.942-0.73-6.523-1.755-10.539c-1.002-4.018-2.503-8.487-4.716-13.14
		c-2.2-4.658-5.198-9.442-8.946-14.09c-1.903-2.296-3.959-4.596-6.273-6.738c-1.121-1.113-2.356-2.12-3.574-3.181
		c-0.619-0.517-1.271-0.998-1.91-1.506c-0.636-0.512-1.29-1.005-1.972-1.467c-5.343-3.854-11.459-7.073-18.062-9.395
		c-3.298-1.179-6.736-2.044-10.229-2.757c-1.756-0.303-3.519-0.627-5.306-0.802c-0.891-0.11-1.784-0.226-2.683-0.267l-1.348-0.093
		l-0.675-0.047l-0.338-0.024l-0.169-0.012l-0.084-0.006c0.028-0.003-0.183-0.002,0.042-0.008c-1.889-0.012-3.948-0.109-5.609-0.007
		c-1.727,0.016-3.536,0.185-5.339,0.338c-3.584,0.412-7.157,0.987-10.631,1.897c-6.954,1.785-13.583,4.556-19.529,8.105
		c-0.757,0.423-1.488,0.88-2.202,1.358c-0.717,0.473-1.448,0.923-2.147,1.41c-1.378,1.002-2.778,1.959-4.067,3.03
		c-2.649,2.059-5.053,4.312-7.306,6.597c-4.449,4.625-8.155,9.531-11.008,14.415c-2.867,4.879-4.964,9.678-6.471,14.058
		c-1.531,4.379-2.418,8.353-2.999,11.647c-0.139,0.826-0.271,1.608-0.396,2.344c-0.09,0.741-0.174,1.436-0.252,2.083
		c-0.161,1.294-0.283,2.399-0.322,3.298C21.73,99.04,21.667,100,21.667,100s-0.015-0.962-0.042-2.767
		c-0.034-0.905-0.002-2.018,0.053-3.328c0.026-0.656,0.054-1.361,0.083-2.113c0.065-0.75,0.133-1.548,0.206-2.39
		c0.316-3.367,0.884-7.465,2.082-12.06c1.174-4.595,2.922-9.702,5.485-15.007c2.549-5.309,5.996-10.755,10.303-16.03
		c2.182-2.609,4.545-5.212,7.192-7.642c1.287-1.257,2.696-2.404,4.094-3.601c0.709-0.585,1.453-1.133,2.185-1.705
		c0.729-0.577,1.478-1.135,2.256-1.659c6.112-4.357,13.101-7.99,20.638-10.593c3.765-1.32,7.682-2.292,11.661-3.076
		c1.996-0.338,3.99-0.689,6.101-0.886c2.165-0.28,3.958-0.326,5.911-0.474l3.195-0.043c1.025-0.032,2.048,0.012,3.071,0.054
		c2.052,0.038,4.092,0.234,6.135,0.422c4.069,0.483,8.122,1.165,12.063,2.216c7.888,2.065,15.39,5.252,22.105,9.303
		c0.853,0.486,1.679,1.007,2.486,1.551c0.81,0.539,1.633,1.055,2.422,1.61c1.558,1.137,3.132,2.235,4.587,3.45
		c2.982,2.347,5.693,4.904,8.225,7.502c5.008,5.251,9.164,10.82,12.365,16.355C179.743,64.619,182.088,70.055,183.766,75.013z"/>
</g>
</svg>
